<svg width="16" height="16" viewBox="0 0 16 16" fill="none" xmlns="http://www.w3.org/2000/svg">
<path d="M4.36365 8.72718C4.36365 7.76276 4.74676 6.83784 5.42871 6.15589C6.11066 5.47394 7.03559 5.09082 8.00001 5.09082C8.96443 5.09082 9.88936 5.47394 10.5713 6.15589C11.2533 6.83784 11.6364 7.76276 11.6364 8.72718V12.3635C11.6364 13.7352 11.6364 14.4203 11.2102 14.8465C10.784 15.2726 10.0989 15.2726 8.72728 15.2726H7.27274C5.9011 15.2726 5.21601 15.2726 4.78983 14.8465C4.36365 14.4203 4.36365 13.7352 4.36365 12.3635V8.72718Z" stroke="white" stroke-width="1.2" stroke-linecap="round" stroke-linejoin="round"/>
<path d="M6.54547 5.09118V4.3639C6.54547 3.67808 6.54547 3.33554 6.75856 3.12245C6.97165 2.90936 7.31419 2.90936 8.00001 2.90936M8.00001 2.90936C8.68583 2.90936 9.02837 2.90936 9.24147 3.12245C9.45456 3.33554 9.45456 3.67808 9.45456 4.3639V5.09118M8.00001 2.90936V0.727539M8.00001 0.727539H6.54547M8.00001 0.727539H9.99637C10.547 0.727679 11.0773 0.936036 11.4807 1.31081L11.6364 1.45481M4.36365 8.72754H11.6364" stroke="white" stroke-width="1.2" stroke-linecap="round" stroke-linejoin="round"/>
<rect x="4.00012" y="9" width="8" height="6" rx="1" fill="white"/>
</svg>
